<svg width="933" height="1826" viewBox="0 0 933 1826" fill="none" xmlns="http://www.w3.org/2000/svg">
<g filter="url(#filter0_d_570_2582)">
<path fill-rule="evenodd" clip-rule="evenodd" d="M11 33C11 18.6406 22.6406 7 37 7H896C910.359 7 922 18.6406 922 33V511.645C907.606 517.566 897.5 531.485 897.5 547.711C897.5 563.938 907.606 577.856 922 583.777V1785C922 1799.36 910.359 1811 896 1811H37C22.6406 1811 11 1799.36 11 1785V580.698C22.124 573.752 29.5 561.574 29.5 547.711C29.5 533.849 22.124 521.67 11 514.724V33ZM82.5 555.533C82.5 561.056 78.0229 565.533 72.5 565.533C66.9772 565.533 62.5 561.056 62.5 555.533C62.5 550.01 66.9772 545.533 72.5 545.533C78.0229 545.533 82.5 550.01 82.5 555.533ZM114.5 565.533C120.023 565.533 124.5 561.056 124.5 555.533C124.5 550.01 120.023 545.533 114.5 545.533C108.977 545.533 104.5 550.01 104.5 555.533C104.5 561.056 108.977 565.533 114.5 565.533ZM166.5 555.533C166.5 561.056 162.023 565.533 156.5 565.533C150.977 565.533 146.5 561.056 146.5 555.533C146.5 550.01 150.977 545.533 156.5 545.533C162.023 545.533 166.5 550.01 166.5 555.533ZM198.5 565.533C204.023 565.533 208.5 561.056 208.5 555.533C208.5 550.01 204.023 545.533 198.5 545.533C192.977 545.533 188.5 550.01 188.5 555.533C188.5 561.056 192.977 565.533 198.5 565.533ZM250.5 555.533C250.5 561.056 246.023 565.533 240.5 565.533C234.977 565.533 230.5 561.056 230.5 555.533C230.5 550.01 234.977 545.533 240.5 545.533C246.023 545.533 250.5 550.01 250.5 555.533ZM282.5 565.533C288.023 565.533 292.5 561.056 292.5 555.533C292.5 550.01 288.023 545.533 282.5 545.533C276.977 545.533 272.5 550.01 272.5 555.533C272.5 561.056 276.977 565.533 282.5 565.533ZM334.5 555.533C334.5 561.056 330.023 565.533 324.5 565.533C318.977 565.533 314.5 561.056 314.5 555.533C314.5 550.01 318.977 545.533 324.5 545.533C330.023 545.533 334.5 550.01 334.5 555.533ZM366.5 565.533C372.023 565.533 376.5 561.056 376.5 555.533C376.5 550.01 372.023 545.533 366.5 545.533C360.977 545.533 356.5 550.01 356.5 555.533C356.5 561.056 360.977 565.533 366.5 565.533ZM418.5 555.533C418.5 561.056 414.023 565.533 408.5 565.533C402.977 565.533 398.5 561.056 398.5 555.533C398.5 550.01 402.977 545.533 408.5 545.533C414.023 545.533 418.5 550.01 418.5 555.533ZM450.5 565.533C456.023 565.533 460.5 561.056 460.5 555.533C460.5 550.01 456.023 545.533 450.5 545.533C444.977 545.533 440.5 550.01 440.5 555.533C440.5 561.056 444.977 565.533 450.5 565.533ZM502.5 555.533C502.5 561.056 498.023 565.533 492.5 565.533C486.977 565.533 482.5 561.056 482.5 555.533C482.5 550.01 486.977 545.533 492.5 545.533C498.023 545.533 502.5 550.01 502.5 555.533ZM534.5 565.533C540.023 565.533 544.5 561.056 544.5 555.533C544.5 550.01 540.023 545.533 534.5 545.533C528.977 545.533 524.5 550.01 524.5 555.533C524.5 561.056 528.977 565.533 534.5 565.533ZM586.5 555.533C586.5 561.056 582.023 565.533 576.5 565.533C570.977 565.533 566.5 561.056 566.5 555.533C566.5 550.01 570.977 545.533 576.5 545.533C582.023 545.533 586.5 550.01 586.5 555.533ZM618.5 565.533C624.023 565.533 628.5 561.056 628.5 555.533C628.5 550.01 624.023 545.533 618.5 545.533C612.977 545.533 608.5 550.01 608.5 555.533C608.5 561.056 612.977 565.533 618.5 565.533ZM670.5 555.533C670.5 561.056 666.023 565.533 660.5 565.533C654.977 565.533 650.5 561.056 650.5 555.533C650.5 550.01 654.977 545.533 660.5 545.533C666.023 545.533 670.5 550.01 670.5 555.533ZM702.5 565.533C708.023 565.533 712.5 561.056 712.5 555.533C712.5 550.01 708.023 545.533 702.5 545.533C696.977 545.533 692.5 550.01 692.5 555.533C692.5 561.056 696.977 565.533 702.5 565.533ZM754.5 555.533C754.5 561.056 750.023 565.533 744.5 565.533C738.977 565.533 734.5 561.056 734.5 555.533C734.5 550.01 738.977 545.533 744.5 545.533C750.023 545.533 754.5 550.01 754.5 555.533ZM786.5 565.533C792.023 565.533 796.5 561.056 796.5 555.533C796.5 550.01 792.023 545.533 786.5 545.533C780.977 545.533 776.5 550.01 776.5 555.533C776.5 561.056 780.977 565.533 786.5 565.533ZM838.5 555.533C838.5 561.056 834.023 565.533 828.5 565.533C822.977 565.533 818.5 561.056 818.5 555.533C818.5 550.01 822.977 545.533 828.5 545.533C834.023 545.533 838.5 550.01 838.5 555.533ZM870.5 565.533C876.023 565.533 880.5 561.056 880.5 555.533C880.5 550.01 876.023 545.533 870.5 545.533C864.977 545.533 860.5 550.01 860.5 555.533C860.5 561.056 864.977 565.533 870.5 565.533Z" fill="white"/>
<path d="M12.5 33C12.5 19.469 23.469 8.5 37 8.5H896C909.531 8.5 920.5 19.469 920.5 33V510.653C906.073 517 896 531.193 896 547.711C896 564.23 906.073 578.422 920.5 584.769V1785C920.5 1798.53 909.531 1809.5 896 1809.5H37C23.469 1809.5 12.5 1798.53 12.5 1785V581.52C23.6416 574.247 31 561.827 31 547.711C31 533.595 23.6416 521.175 12.5 513.902V33ZM72.5 567.033C78.8513 567.033 84 561.885 84 555.533C84 549.182 78.8513 544.033 72.5 544.033C66.1487 544.033 61 549.182 61 555.533C61 561.885 66.1487 567.033 72.5 567.033ZM114.5 567.033C120.851 567.033 126 561.885 126 555.533C126 549.182 120.851 544.033 114.5 544.033C108.149 544.033 103 549.182 103 555.533C103 561.885 108.149 567.033 114.5 567.033ZM156.5 567.033C162.851 567.033 168 561.885 168 555.533C168 549.182 162.851 544.033 156.5 544.033C150.149 544.033 145 549.182 145 555.533C145 561.885 150.149 567.033 156.5 567.033ZM198.5 567.033C204.851 567.033 210 561.885 210 555.533C210 549.182 204.851 544.033 198.5 544.033C192.149 544.033 187 549.182 187 555.533C187 561.885 192.149 567.033 198.5 567.033ZM240.5 567.033C246.851 567.033 252 561.885 252 555.533C252 549.182 246.851 544.033 240.5 544.033C234.149 544.033 229 549.182 229 555.533C229 561.885 234.149 567.033 240.5 567.033ZM282.5 567.033C288.851 567.033 294 561.885 294 555.533C294 549.182 288.851 544.033 282.5 544.033C276.149 544.033 271 549.182 271 555.533C271 561.885 276.149 567.033 282.5 567.033ZM324.5 567.033C330.851 567.033 336 561.885 336 555.533C336 549.182 330.851 544.033 324.5 544.033C318.149 544.033 313 549.182 313 555.533C313 561.885 318.149 567.033 324.5 567.033ZM366.5 567.033C372.851 567.033 378 561.885 378 555.533C378 549.182 372.851 544.033 366.5 544.033C360.149 544.033 355 549.182 355 555.533C355 561.885 360.149 567.033 366.5 567.033ZM408.5 567.033C414.851 567.033 420 561.885 420 555.533C420 549.182 414.851 544.033 408.5 544.033C402.149 544.033 397 549.182 397 555.533C397 561.885 402.149 567.033 408.5 567.033ZM450.5 567.033C456.851 567.033 462 561.885 462 555.533C462 549.182 456.851 544.033 450.5 544.033C444.149 544.033 439 549.182 439 555.533C439 561.885 444.149 567.033 450.5 567.033ZM492.5 567.033C498.851 567.033 504 561.885 504 555.533C504 549.182 498.851 544.033 492.5 544.033C486.149 544.033 481 549.182 481 555.533C481 561.885 486.149 567.033 492.5 567.033ZM534.5 567.033C540.851 567.033 546 561.885 546 555.533C546 549.182 540.851 544.033 534.5 544.033C528.149 544.033 523 549.182 523 555.533C523 561.885 528.149 567.033 534.5 567.033ZM576.5 567.033C582.851 567.033 588 561.885 588 555.533C588 549.182 582.851 544.033 576.5 544.033C570.149 544.033 565 549.182 565 555.533C565 561.885 570.149 567.033 576.5 567.033ZM618.5 567.033C624.851 567.033 630 561.885 630 555.533C630 549.182 624.851 544.033 618.5 544.033C612.149 544.033 607 549.182 607 555.533C607 561.885 612.149 567.033 618.5 567.033ZM660.5 567.033C666.851 567.033 672 561.885 672 555.533C672 549.182 666.851 544.033 660.5 544.033C654.149 544.033 649 549.182 649 555.533C649 561.885 654.149 567.033 660.5 567.033ZM702.5 567.033C708.851 567.033 714 561.885 714 555.533C714 549.182 708.851 544.033 702.5 544.033C696.149 544.033 691 549.182 691 555.533C691 561.885 696.149 567.033 702.5 567.033ZM744.5 567.033C750.851 567.033 756 561.885 756 555.533C756 549.182 750.851 544.033 744.5 544.033C738.149 544.033 733 549.182 733 555.533C733 561.885 738.149 567.033 744.5 567.033ZM786.5 567.033C792.851 567.033 798 561.885 798 555.533C798 549.182 792.851 544.033 786.5 544.033C780.149 544.033 775 549.182 775 555.533C775 561.885 780.149 567.033 786.5 567.033ZM828.5 567.033C834.851 567.033 840 561.885 840 555.533C840 549.182 834.851 544.033 828.5 544.033C822.149 544.033 817 549.182 817 555.533C817 561.885 822.149 567.033 828.5 567.033ZM870.5 567.033C876.851 567.033 882 561.885 882 555.533C882 549.182 876.851 544.033 870.5 544.033C864.149 544.033 859 549.182 859 555.533C859 561.885 864.149 567.033 870.5 567.033Z" stroke="#D9D9D9" stroke-width="3"/>
</g>
<defs>
<filter id="filter0_d_570_2582" x="0.8" y="0.8" width="931.4" height="1824.4" filterUnits="userSpaceOnUse" color-interpolation-filters="sRGB">
<feFlood flood-opacity="0" result="BackgroundImageFix"/>
<feColorMatrix in="SourceAlpha" type="matrix" values="0 0 0 0 0 0 0 0 0 0 0 0 0 0 0 0 0 0 127 0" result="hardAlpha"/>
<feOffset dy="4"/>
<feGaussianBlur stdDeviation="5.1"/>
<feComposite in2="hardAlpha" operator="out"/>
<feColorMatrix type="matrix" values="0 0 0 0 0 0 0 0 0 0 0 0 0 0 0 0 0 0 0.25 0"/>
<feBlend mode="normal" in2="BackgroundImageFix" result="effect1_dropShadow_570_2582"/>
<feBlend mode="normal" in="SourceGraphic" in2="effect1_dropShadow_570_2582" result="shape"/>
</filter>
</defs>
</svg>
